<?xml version="1.0" encoding="UTF-8" standalone="no"?> <svg xmlns="http://www.w3.org/2000/svg" xmlns:xlink="http://www.w3.org/1999/xlink" xmlns:serif="http://www.serif.com/" width="100%" height="100%" viewBox="0 0 1200 200" version="1.1" xml:space="preserve" style="fill-rule:evenodd;clip-rule:evenodd;stroke-linejoin:round;stroke-miterlimit:2;"> <g transform="matrix(1,0,0,1,0,-500)"> <path d="M682.79,553.85C678.49,549.67 675.94,543.88 675.94,537.05C675.94,530.22 678.49,524.5 682.85,520.25C687.21,516.07 693.22,513.67 700.13,513.67C707.83,513.67 714.19,516.5 718.44,521.73L711.83,527.88C708.8,524.37 705.04,522.59 700.62,522.59C692.31,522.59 686.37,528.5 686.37,537.05C686.37,545.6 692.31,551.57 700.62,551.57C705.05,551.57 708.8,549.79 711.83,546.22L718.44,552.37C714.2,557.6 707.89,560.49 700.07,560.49C693.22,560.49 687.16,558.09 682.79,553.84L682.79,553.85Z" style="fill-rule:nonzero;"></path> <path d="M732.95,557.91C727.01,554.77 723.68,549.23 723.68,542.34C723.68,538.83 724.47,535.69 726.1,532.99C729.25,527.64 735.01,524.44 741.92,524.44C745.31,524.44 748.28,525.12 751.01,526.53C756.34,529.48 759.74,534.96 759.74,542.47C759.74,543.21 759.62,544.32 759.56,545.18L733.61,545.18C733.91,546.04 734.22,546.9 734.64,547.7C736.34,550.59 739.37,552.13 743.43,552.13C747.07,552.13 749.73,551.02 752.04,548.81L757.31,554.59C754.22,558.22 749.37,560.19 743.19,560.19C739.31,560.19 735.85,559.45 732.95,557.91ZM750.41,539.27C749.68,534.96 746.53,532.07 741.98,532.07C740.28,532.07 738.83,532.44 737.56,533.12C735.38,534.41 733.98,536.5 733.5,539.27L750.41,539.27Z" style="fill-rule:nonzero;"></path> <path d="M777.13,559.7L767.23,559.7L767.23,524.94L776.69,524.94L776.69,529.06C779.36,526.04 783.36,524.45 788.03,524.45C790.76,524.45 793.18,524.94 795.37,526.05C799.61,528.27 802.22,532.76 802.22,539.83L802.22,559.7L792.28,559.7L792.28,541.36C792.28,535.7 789.73,533.12 785.37,533.12C783.79,533.12 782.4,533.49 781.19,534.1C778.64,535.45 777.13,538.16 777.13,542.53L777.13,559.7Z" style="fill-rule:nonzero;"></path> <path d="M812.39,547.76L812.39,532.99L807.06,532.99L807.06,525.24L812.39,525.24L812.39,517.06L822.27,517.06L822.27,525.24L830.82,525.24L830.82,532.99L822.27,532.99L822.27,547.63C822.27,550.52 823.97,552.18 826.57,552.18C828.15,552.18 829.48,551.75 830.57,550.89L833.24,558.03C831.18,559.51 828.21,560.18 825.18,560.18C817.06,560.18 812.39,556 812.39,547.75L812.39,547.76Z" style="fill-rule:nonzero;"></path> <path d="M848.64,559.7L838.75,559.7L838.75,524.94L848.21,524.94L848.21,529.55C850.63,526.17 854.7,524.44 859.97,524.44L859.97,533.73C859.18,533.67 858.52,533.61 857.79,533.61C852.33,533.61 848.64,536.63 848.64,543.27L848.64,559.7Z" style="fill-rule:nonzero;"></path> <path d="M874.68,557.91C868.98,554.77 865.53,549.23 865.53,542.34C865.53,538.83 866.32,535.69 868.02,532.99C871.23,527.64 877.05,524.44 884.33,524.44C887.97,524.44 891.18,525.18 894.03,526.65C899.67,529.79 903.12,535.26 903.12,542.34C903.12,545.72 902.33,548.86 900.7,551.51C897.49,556.92 891.55,560.19 884.33,560.19C880.75,560.19 877.48,559.45 874.69,557.91L874.68,557.91ZM888.8,550.78C891.41,549.24 893.04,546.29 893.04,542.35C893.04,540.32 892.68,538.6 891.89,537.18C890.37,534.29 887.65,532.69 884.31,532.69C882.67,532.69 881.22,533.06 879.89,533.86C877.28,535.4 875.59,538.23 875.59,542.35C875.59,544.32 875.95,545.98 876.74,547.4C878.32,550.35 881.04,551.95 884.32,551.95C886.02,551.95 887.47,551.58 888.81,550.78L888.8,550.78Z" style="fill-rule:nonzero;"></path> <path d="M934.93,557.97C929.78,554.96 926.56,549.54 926.56,542.34C926.56,538.65 927.29,535.45 928.86,532.8C931.83,527.45 937.23,524.43 943.65,524.43C946.5,524.43 949.05,525.04 951.23,526.34C952.26,526.96 953.17,527.63 953.9,528.56L953.9,514.47L963.84,514.47L963.84,559.69L954.38,559.69L954.38,555.63C951.89,558.71 948.26,560.18 943.65,560.18C940.44,560.18 937.53,559.44 934.92,557.96L934.93,557.97ZM949.78,550.78C952.39,549.24 954.08,546.29 954.08,542.35C954.08,540.32 953.72,538.6 952.93,537.18C951.35,534.29 948.63,532.69 945.41,532.69C943.71,532.69 942.26,533.06 940.92,533.86C938.31,535.4 936.62,538.23 936.62,542.35C936.62,544.32 936.98,545.98 937.83,547.4C939.35,550.35 942.07,551.95 945.41,551.95C946.99,551.95 948.44,551.58 949.77,550.78L949.78,550.78Z" style="fill-rule:nonzero;"></path> <path d="M980.74,557.91C974.8,554.77 971.47,549.23 971.47,542.34C971.47,538.83 972.26,535.69 973.89,532.99C977.04,527.64 982.8,524.44 989.71,524.44C993.1,524.44 996.08,525.12 998.8,526.53C1004.13,529.48 1007.53,534.96 1007.53,542.47C1007.53,543.21 1007.41,544.32 1007.35,545.18L981.4,545.18C981.7,546.04 982.01,546.9 982.43,547.7C984.13,550.59 987.16,552.13 991.22,552.13C994.86,552.13 997.52,551.02 999.83,548.81L1005.1,554.59C1002.01,558.22 997.16,560.19 990.98,560.19C987.1,560.19 983.65,559.45 980.74,557.91ZM998.19,539.27C997.46,534.96 994.31,532.07 989.76,532.07C988.06,532.07 986.61,532.44 985.33,533.12C983.15,534.41 981.75,536.5 981.27,539.27L998.19,539.27Z" style="fill-rule:nonzero;"></path> <path d="M685.64,622.18L675.94,622.18L675.94,576.96L684.49,576.96L701.16,605.08L717.59,576.96L726.08,576.96L726.2,622.18L716.5,622.18L716.44,595.05L703.35,617.39L698.68,617.39L685.65,595.61L685.65,622.19L685.64,622.18Z" style="fill-rule:nonzero;"></path> <path d="M743.11,620.4C737.41,617.26 733.96,611.72 733.96,604.83C733.96,601.32 734.75,598.18 736.45,595.48C739.66,590.13 745.48,586.93 752.76,586.93C756.4,586.93 759.61,587.67 762.46,589.14C768.1,592.28 771.55,597.75 771.55,604.83C771.55,608.21 770.76,611.35 769.13,614C765.92,619.41 759.98,622.68 752.76,622.68C749.18,622.68 745.91,621.94 743.12,620.4L743.11,620.4ZM757.23,613.26C759.84,611.72 761.47,608.77 761.47,604.83C761.47,602.8 761.11,601.08 760.32,599.66C758.8,596.77 756.08,595.17 752.74,595.17C751.1,595.17 749.65,595.54 748.32,596.34C745.71,597.88 744.02,600.71 744.02,604.83C744.02,606.8 744.38,608.46 745.17,609.88C746.75,612.83 749.47,614.43 752.75,614.43C754.45,614.43 755.9,614.06 757.24,613.26L757.23,613.26Z" style="fill-rule:nonzero;"></path> <path d="M786.53,620.46C781.38,617.45 778.16,612.03 778.16,604.83C778.16,601.14 778.89,597.94 780.46,595.29C783.43,589.94 788.83,586.92 795.25,586.92C798.1,586.92 800.64,587.53 802.83,588.83C803.86,589.45 804.77,590.12 805.5,591.05L805.5,576.96L815.44,576.96L815.44,622.18L805.98,622.18L805.98,618.12C803.5,621.2 799.86,622.67 795.25,622.67C792.04,622.67 789.13,621.93 786.52,620.45L786.53,620.46ZM801.39,613.26C804,611.72 805.69,608.77 805.69,604.83C805.69,602.8 805.33,601.08 804.54,599.66C802.96,596.77 800.24,595.17 797.02,595.17C795.32,595.17 793.87,595.54 792.53,596.34C789.92,597.88 788.23,600.71 788.23,604.83C788.23,606.8 788.59,608.46 789.44,609.88C790.96,612.83 793.68,614.43 797.02,614.43C798.6,614.43 800.05,614.06 801.38,613.26L801.39,613.26Z" style="fill-rule:nonzero;"></path> <path d="M832.34,620.4C826.4,617.26 823.07,611.72 823.07,604.83C823.07,601.32 823.86,598.18 825.49,595.48C828.64,590.13 834.4,586.93 841.31,586.93C844.7,586.93 847.68,587.61 850.4,589.02C855.73,591.97 859.13,597.45 859.13,604.96C859.13,605.7 859.01,606.81 858.95,607.67L833,607.67C833.3,608.53 833.61,609.39 834.03,610.19C835.73,613.08 838.76,614.62 842.82,614.62C846.46,614.62 849.12,613.51 851.43,611.3L856.7,617.08C853.61,620.71 848.76,622.68 842.58,622.68C838.7,622.68 835.25,621.94 832.34,620.4ZM849.8,601.75C849.07,597.44 845.92,594.55 841.37,594.55C839.67,594.55 838.22,594.92 836.94,595.6C834.76,596.89 833.36,598.98 832.88,601.75L849.8,601.75Z" style="fill-rule:nonzero;"></path> <rect x="866.7" y="576.96" width="9.88" height="45.22" style="fill-rule:nonzero;"></rect> <path d="M890.2,621.26C886.38,619.48 884.26,616.09 884.26,612.15C884.26,610.12 884.74,608.27 885.78,606.74C887.78,603.66 895.66,601.76 898.93,601.76L906.87,601.76C906.87,597.45 904.32,594.93 898.93,594.93C895.29,595.24 893.05,596.41 892.02,598.38L884.68,593.27C887.77,588.53 892.99,586.93 900.26,586.93C910.75,586.93 916.75,591.73 916.75,602.37L916.75,622.18L907.48,622.18L907.48,617.87C905.66,621.01 902.15,622.67 897.05,622.67C894.38,622.67 892.08,622.24 890.2,621.25L890.2,621.26ZM906.87,611.17L906.87,607.66L900.02,607.66C895.41,607.66 893.9,609.38 893.9,611.72C893.9,614.3 896.02,615.9 899.54,615.9C902.81,615.9 905.66,614.3 906.88,611.16L906.87,611.17Z" style="fill-rule:nonzero;"></path> <path d="M935.2,622.18L925.32,622.18L925.32,587.42L934.78,587.42L934.78,591.42C937.33,588.47 941.15,586.93 945.57,586.93C950.36,586.93 954.48,588.78 956.78,592.59C959.57,589.02 963.99,586.93 969.15,586.93C971.88,586.93 974.3,587.42 976.42,588.53C980.6,590.75 983.15,595.24 983.15,602.31L983.15,622.18L973.21,622.18L973.21,603.84C973.21,598.18 970.79,595.6 966.66,595.6C965.21,595.6 963.93,595.97 962.78,596.58C960.48,597.93 959.14,600.58 959.14,604.7L959.14,622.17L949.2,622.17L949.2,603.83C949.2,598.17 946.9,595.59 942.71,595.59C941.26,595.59 939.98,595.96 938.83,596.57C936.53,597.92 935.19,600.57 935.19,604.69L935.19,622.16L935.2,622.18Z" style="fill-rule:nonzero;"></path> <path d="M990.87,576.96C990.87,573.82 993.42,571.36 997.05,571.36C1000.68,571.36 1003.23,573.58 1003.23,576.77C1003.23,579.96 1000.81,582.55 997.05,582.55C993.29,582.55 990.87,580.09 990.87,576.95L990.87,576.96ZM1002.03,622.18L992.15,622.18L992.15,587.42L1002.03,587.42L1002.03,622.18Z" style="fill-rule:nonzero;"></path> <path d="M1019.28,620.4C1013.34,617.26 1010.01,611.72 1010.01,604.83C1010.01,601.32 1010.8,598.18 1012.43,595.48C1015.58,590.13 1021.34,586.93 1028.25,586.93C1031.64,586.93 1034.62,587.61 1037.34,589.02C1042.67,591.97 1046.07,597.45 1046.07,604.96C1046.07,605.7 1045.95,606.81 1045.89,607.67L1019.94,607.67C1020.24,608.53 1020.55,609.39 1020.97,610.19C1022.67,613.08 1025.7,614.62 1029.76,614.62C1033.4,614.62 1036.06,613.51 1038.37,611.3L1043.64,617.08C1040.55,620.71 1035.7,622.68 1029.52,622.68C1025.64,622.68 1022.19,621.94 1019.28,620.4ZM1036.74,601.75C1036.01,597.44 1032.86,594.55 1028.31,594.55C1026.61,594.55 1025.16,594.92 1023.88,595.6C1021.7,596.89 1020.3,598.98 1019.82,601.75L1036.74,601.75Z" style="fill-rule:nonzero;"></path> <path d="M1063.45,622.18L1053.55,622.18L1053.55,587.42L1063.01,587.42L1063.01,591.54C1065.68,588.52 1069.68,586.93 1074.35,586.93C1077.08,586.93 1079.5,587.42 1081.69,588.53C1085.93,590.75 1088.54,595.24 1088.54,602.31L1088.54,622.18L1078.6,622.18L1078.6,603.84C1078.6,598.18 1076.05,595.6 1071.69,595.6C1070.11,595.6 1068.72,595.97 1067.51,596.58C1064.96,597.93 1063.45,600.64 1063.45,605.01L1063.45,622.18Z" style="fill-rule:nonzero;"></path> <path d="M1098.72,610.24L1098.72,595.47L1093.39,595.47L1093.39,587.72L1098.72,587.72L1098.72,579.54L1108.6,579.54L1108.6,587.72L1117.15,587.72L1117.15,595.47L1108.6,595.47L1108.6,610.11C1108.6,613 1110.3,614.66 1112.9,614.66C1114.48,614.66 1115.81,614.23 1116.9,613.37L1119.57,620.51C1117.51,621.99 1114.54,622.66 1111.51,622.66C1103.39,622.66 1098.72,618.48 1098.72,610.23L1098.72,610.24Z" style="fill-rule:nonzero;"></path> <path d="M1132.38,620.4C1126.68,617.26 1123.23,611.72 1123.23,604.83C1123.23,601.32 1124.02,598.18 1125.72,595.48C1128.93,590.13 1134.75,586.93 1142.03,586.93C1145.67,586.93 1148.88,587.67 1151.73,589.14C1157.37,592.28 1160.82,597.75 1160.82,604.83C1160.82,608.21 1160.03,611.35 1158.4,614C1155.19,619.41 1149.25,622.68 1142.03,622.68C1138.45,622.68 1135.18,621.94 1132.39,620.4L1132.38,620.4ZM1146.51,613.26C1149.12,611.72 1150.75,608.77 1150.75,604.83C1150.75,602.8 1150.39,601.08 1149.6,599.66C1148.08,596.77 1145.36,595.17 1142.02,595.17C1140.38,595.17 1138.93,595.54 1137.6,596.34C1134.99,597.88 1133.3,600.71 1133.3,604.83C1133.3,606.8 1133.66,608.46 1134.45,609.88C1136.03,612.83 1138.75,614.43 1142.03,614.43C1143.73,614.43 1145.18,614.06 1146.52,613.26L1146.51,613.26Z" style="fill-rule:nonzero;"></path> <path d="M685.64,685.96L675.94,685.96L675.94,640.74L684.49,640.74L701.16,668.86L717.59,640.74L726.08,640.74L726.2,685.96L716.5,685.96L716.44,658.83L703.35,681.17L698.68,681.17L685.65,659.39L685.65,685.97L685.64,685.96Z" style="fill-rule:nonzero;"></path> <path d="M740.02,685.04C736.2,683.26 734.08,679.87 734.08,675.93C734.08,673.9 734.56,672.05 735.6,670.52C737.6,667.44 745.48,665.54 748.75,665.54L756.69,665.54C756.69,661.23 754.14,658.71 748.75,658.71C745.11,659.02 742.87,660.19 741.84,662.16L734.5,657.05C737.59,652.31 742.81,650.71 750.08,650.71C760.57,650.71 766.57,655.51 766.57,666.15L766.57,685.96L757.3,685.96L757.3,681.65C755.48,684.79 751.97,686.45 746.87,686.45C744.2,686.45 741.9,686.02 740.02,685.04ZM756.69,674.95L756.69,671.44L749.84,671.44C745.23,671.44 743.72,673.16 743.72,675.5C743.72,678.08 745.84,679.68 749.36,679.68C752.63,679.68 755.48,678.08 756.7,674.94L756.69,674.95Z" style="fill-rule:nonzero;"></path> <path d="M776.58,674.03L776.58,659.26L771.25,659.26L771.25,651.51L776.58,651.51L776.58,643.33L786.46,643.33L786.46,651.51L795.01,651.51L795.01,659.26L786.46,659.26L786.46,673.9C786.46,676.79 788.16,678.45 790.76,678.45C792.34,678.45 793.67,678.02 794.76,677.16L797.43,684.3C795.37,685.78 792.4,686.45 789.37,686.45C781.25,686.45 776.58,682.27 776.58,674.02L776.58,674.03Z" style="fill-rule:nonzero;"></path> <path d="M810.37,684.18C804.43,681.04 801.1,675.5 801.1,668.61C801.1,665.1 801.89,661.96 803.52,659.26C806.67,653.91 812.43,650.71 819.34,650.71C822.73,650.71 825.71,651.39 828.43,652.8C833.76,655.75 837.16,661.23 837.16,668.74C837.16,669.48 837.04,670.59 836.98,671.45L811.03,671.45C811.33,672.31 811.64,673.17 812.06,673.97C813.76,676.86 816.79,678.4 820.85,678.4C824.49,678.4 827.15,677.29 829.46,675.08L834.73,680.86C831.64,684.49 826.79,686.46 820.61,686.46C816.73,686.46 813.28,685.72 810.37,684.18ZM827.83,665.54C827.1,661.23 823.95,658.34 819.4,658.34C817.7,658.34 816.25,658.71 814.97,659.39C812.79,660.68 811.39,662.77 810.91,665.54L827.83,665.54Z" style="fill-rule:nonzero;"></path> <path d="M854.52,685.96L844.64,685.96L844.64,651.2L854.1,651.2L854.1,655.2C856.65,652.25 860.47,650.71 864.89,650.71C869.68,650.71 873.8,652.56 876.1,656.37C878.89,652.8 883.31,650.71 888.47,650.71C891.2,650.71 893.62,651.2 895.74,652.31C899.92,654.53 902.47,659.02 902.47,666.09L902.47,685.96L892.53,685.96L892.53,667.62C892.53,661.96 890.11,659.38 885.98,659.38C884.53,659.38 883.25,659.75 882.1,660.36C879.8,661.71 878.46,664.36 878.46,668.48L878.46,685.95L868.52,685.95L868.52,667.61C868.52,661.95 866.22,659.37 862.03,659.37C860.58,659.37 859.3,659.74 858.15,660.35C855.85,661.7 854.51,664.35 854.51,668.47L854.51,685.94L854.52,685.96Z" style="fill-rule:nonzero;"></path> <path d="M915.77,685.04C911.95,683.26 909.83,679.87 909.83,675.93C909.83,673.9 910.31,672.05 911.35,670.52C913.35,667.44 921.23,665.54 924.5,665.54L932.44,665.54C932.44,661.23 929.89,658.71 924.5,658.71C920.86,659.02 918.62,660.19 917.59,662.16L910.25,657.05C913.34,652.31 918.56,650.71 925.83,650.71C936.32,650.71 942.32,655.51 942.32,666.15L942.32,685.96L933.05,685.96L933.05,681.65C931.23,684.79 927.72,686.45 922.62,686.45C919.95,686.45 917.65,686.02 915.77,685.04ZM932.44,674.95L932.44,671.44L925.59,671.44C920.98,671.44 919.47,673.16 919.47,675.5C919.47,678.08 921.59,679.68 925.11,679.68C928.38,679.68 931.23,678.08 932.45,674.94L932.44,674.95ZM928.87,646.77L921.05,646.77L929.66,637.42L940.39,637.42L928.87,646.77Z" style="fill-rule:nonzero;"></path> <path d="M952.33,674.03L952.33,659.26L947,659.26L947,651.51L952.33,651.51L952.33,643.33L962.21,643.33L962.21,651.51L970.76,651.51L970.76,659.26L962.21,659.26L962.21,673.9C962.21,676.79 963.91,678.45 966.51,678.45C968.09,678.45 969.42,678.02 970.51,677.16L973.18,684.3C971.12,685.78 968.15,686.45 965.12,686.45C957,686.45 952.33,682.27 952.33,674.02L952.33,674.03Z" style="fill-rule:nonzero;"></path> <path d="M977.84,640.74C977.84,637.6 980.39,635.14 984.02,635.14C987.65,635.14 990.2,637.36 990.2,640.55C990.2,643.74 987.78,646.33 984.02,646.33C980.26,646.33 977.84,643.87 977.84,640.73L977.84,640.74ZM988.99,685.96L979.11,685.96L979.11,651.2L988.99,651.2L988.99,685.96Z" style="fill-rule:nonzero;"></path> <path d="M1006.19,684.18C1000.37,681.1 996.98,675.5 996.98,668.61C996.98,665.1 997.77,661.96 999.47,659.26C1002.68,653.91 1008.68,650.71 1016.08,650.71C1023.48,650.71 1028.87,653.85 1031.42,659.57L1023.72,663.75C1021.9,660.43 1019.11,658.95 1016.02,658.95C1014.26,658.95 1012.75,659.32 1011.41,660.12C1008.68,661.66 1007.05,664.49 1007.05,668.61C1007.05,670.58 1007.41,672.3 1008.2,673.78C1009.78,676.61 1012.62,678.21 1016.02,678.21C1019.11,678.21 1021.9,676.8 1023.72,673.41L1031.42,677.72C1028.87,683.32 1023.24,686.46 1016.08,686.46C1012.38,686.46 1009.05,685.72 1006.2,684.18L1006.19,684.18Z" style="fill-rule:nonzero;"></path> <path d="M1046.27,684.18C1040.57,681.04 1037.12,675.5 1037.12,668.61C1037.12,665.1 1037.91,661.96 1039.61,659.26C1042.82,653.91 1048.64,650.71 1055.92,650.71C1059.56,650.71 1062.77,651.45 1065.62,652.92C1071.26,656.06 1074.71,661.53 1074.71,668.61C1074.71,671.99 1073.92,675.13 1072.29,677.78C1069.08,683.19 1063.14,686.46 1055.92,686.46C1052.34,686.46 1049.07,685.72 1046.28,684.18L1046.27,684.18ZM1060.4,677.04C1063.01,675.5 1064.64,672.55 1064.64,668.61C1064.64,666.58 1064.28,664.86 1063.49,663.44C1061.97,660.55 1059.25,658.95 1055.91,658.95C1054.27,658.95 1052.82,659.32 1051.49,660.12C1048.88,661.66 1047.19,664.49 1047.19,668.61C1047.19,670.58 1047.55,672.24 1048.34,673.66C1049.92,676.61 1052.64,678.21 1055.92,678.21C1057.62,678.21 1059.07,677.84 1060.41,677.04L1060.4,677.04Z" style="fill-rule:nonzero;"></path> </g> <g transform="matrix(1,0,0,1,0,-500)"> <path d="M65.33,664.01C48.9,648.04 39.19,625.96 39.19,599.89C39.19,573.82 48.91,551.97 65.57,535.77C82.23,519.8 105.13,510.64 131.51,510.64C160.89,510.64 185.19,521.44 201.38,541.41L176.16,564.9C164.59,551.51 150.25,544.7 133.36,544.7C101.66,544.7 78.99,567.25 78.99,599.9C78.99,632.55 101.66,655.33 133.36,655.33C150.25,655.33 164.59,648.52 176.16,634.9L201.38,658.39C185.18,678.35 161.12,689.39 131.28,689.39C105.14,689.39 82,680.23 65.34,664.02L65.33,664.01Z" style="fill:rgb(250,0,0);fill-rule:nonzero;"></path> <path d="M262.55,686.32L225.53,686.32L225.53,513.68L258.15,513.68L321.77,621.02L384.47,513.68L416.86,513.68L417.32,686.32L380.3,686.32L380.07,582.73L330.1,667.99L312.29,667.99L262.55,584.84L262.55,686.32Z" style="fill:rgb(250,0,0);fill-rule:nonzero;"></path> <path d="M487.89,686.32L450.87,686.32L450.87,513.68L483.49,513.68L547.11,621.02L609.81,513.68L642.2,513.68L642.66,686.32L605.64,686.32L605.41,582.73L555.44,667.99L537.63,667.99L487.89,584.84L487.89,686.32Z" style="fill:rgb(250,0,0);fill-rule:nonzero;"></path> </g> </svg> 